<?xml version="1.0" encoding="utf-8"?>
<!-- Generator: Adobe Illustrator 16.0.0, SVG Export Plug-In . SVG Version: 6.00 Build 0)  -->
<!DOCTYPE svg PUBLIC "-//W3C//DTD SVG 1.1//EN" "http://www.w3.org/Graphics/SVG/1.1/DTD/svg11.dtd">
<svg version="1.1" xmlns="http://www.w3.org/2000/svg" xmlns:xlink="http://www.w3.org/1999/xlink" x="0px" y="0px" width="200px"
	 height="200px" viewBox="0 0 200 200" enable-background="new 0 0 200 200" xml:space="preserve">
<g id="Layer_6" display="none">
	<rect x="-0.2" y="0.1" display="inline" fill-rule="evenodd" clip-rule="evenodd" width="200" height="200"/>
</g>
<g id="Layer_1">
	<g>
		<g>
			<g>
				<path fill-rule="evenodd" clip-rule="evenodd" fill="#FFFFFF" d="M193.507,36.586c0,52.673,0,105.347,0,158.02
					c-52.673,0-105.346,0-158.02,0c-0.335-0.113-0.663-0.273-1.008-0.333c-13.971-2.419-23.239-10.329-27.688-23.799
					c-0.643-1.947-0.966-3.999-1.438-6.002c0-52.642,0-105.285,0-158.02c52.673,0,105.347,0,158.02,0
					c0.338,0.112,0.667,0.271,1.014,0.33c14.073,2.41,23.319,10.422,27.735,23.977C192.738,32.651,193.053,34.642,193.507,36.586z
					 M184.985,186.087c0-0.86,0-1.46,0-2.06c0-47.645,0.008-95.29-0.004-142.935c-0.004-15.133-10.951-26.111-26.052-26.116
					c-47.646-0.015-95.291-0.006-142.935-0.006c-0.649,0-1.298,0-2.119,0c0,0.86,0,1.459,0,2.059
					c0,47.706-0.005,95.413,0.021,143.119c0.001,1.826,0.134,3.687,0.497,5.472c2.513,12.349,12.64,20.458,25.541,20.461
					c47.645,0.014,95.29,0.005,142.935,0.005C183.474,186.087,184.079,186.087,184.985,186.087z"/>
			</g>
		</g>
	</g>
</g>
<g id="Layer_8" display="none">
</g>
<g id="Layer_9" display="none">
</g>
<g id="id" display="none">
	<g display="inline">
		<path fill="#FFFFFF" d="M78.27,70.679v62.735H66.821V70.679H78.27z"/>
		<path fill="#FFFFFF" d="M132.722,67.328v53.334c0,4.654,0.186,9.68,0.372,12.752h-10.238l-0.466-7.167h-0.186
			c-2.699,5.026-8.191,8.191-14.799,8.191c-10.797,0-19.36-9.215-19.36-23.177c-0.093-15.172,9.401-24.2,20.291-24.2
			c6.236,0,10.704,2.606,12.752,5.957h0.186v-25.69H132.722z M121.273,106.979c0-0.931-0.093-2.048-0.279-2.979
			c-1.024-4.468-4.654-8.098-9.866-8.098c-7.353,0-11.449,6.516-11.449,14.986c0,8.284,4.096,14.334,11.355,14.334
			c4.654,0,8.75-3.165,9.866-8.098c0.279-1.024,0.373-2.141,0.373-3.351V106.979z"/>
	</g>
</g>
<g id="ai" display="none">
	<g display="inline">
		<path fill="#FFFFFF" d="M77.432,115.636l-5.399,17.778H60.212l20.105-62.735h14.613l20.384,62.735h-12.286l-5.678-17.778H77.432z
			 M95.396,106.979l-4.933-15.451c-1.21-3.816-2.234-8.098-3.165-11.728h-0.186c-0.931,3.63-1.862,8.005-2.979,11.728l-4.84,15.451
			H95.396z"/>
		<path fill="#FFFFFF" d="M135.33,75.426c0,3.444-2.513,6.143-6.516,6.143c-3.816,0-6.329-2.699-6.329-6.143
			c0-3.537,2.606-6.236,6.422-6.236C132.817,69.189,135.237,71.889,135.33,75.426z M123.137,133.414V88.084h11.542v45.329H123.137z"
			/>
	</g>
</g>
<g id="ps" display="none">
	<g display="inline">
		<path fill="#FFFFFF" d="M61.702,71.516c4.096-0.745,9.773-1.303,17.499-1.303c8.377,0,14.52,1.768,18.522,5.119
			c3.723,3.072,6.143,8.005,6.143,13.869c0,5.957-1.861,10.89-5.398,14.241c-4.561,4.561-11.728,6.702-19.826,6.702
			c-2.141,0-4.095-0.093-5.584-0.373v23.642H61.702V71.516z M73.058,100.743c1.396,0.372,3.258,0.465,5.584,0.465
			c8.563,0,13.776-4.188,13.776-11.542c0-6.981-4.84-10.704-12.752-10.704c-3.165,0-5.398,0.279-6.608,0.559V100.743z"/>
		<path fill="#FFFFFF" d="M110.757,122.896c2.606,1.583,7.539,3.258,11.635,3.258c5.026,0,7.26-2.048,7.26-5.026
			c0-3.071-1.861-4.654-7.446-6.608c-8.842-3.071-12.565-7.912-12.472-13.217c0-8.004,6.608-14.241,17.126-14.241
			c5.026,0,9.401,1.303,12.007,2.699l-2.234,8.098c-1.955-1.117-5.584-2.606-9.587-2.606c-4.096,0-6.33,1.955-6.33,4.747
			c0,2.885,2.141,4.281,7.912,6.329c8.19,2.979,12.007,7.167,12.1,13.869c0,8.191-6.422,14.148-18.43,14.148
			c-5.492,0-10.425-1.303-13.776-3.165L110.757,122.896z"/>
	</g>
</g>
<g id="ae">
	<g>
		<path fill="#FFFFFF" d="M65.704,115.636l-5.399,17.778H48.484l20.105-62.735h14.613l20.384,62.735H91.3l-5.678-17.778H65.704z
			 M83.667,106.979l-4.933-15.451C77.524,87.712,76.5,83.43,75.57,79.8h-0.186c-0.931,3.63-1.862,8.005-2.979,11.728l-4.84,15.451
			H83.667z"/>
		<path fill="#FFFFFF" d="M118.762,113.96c0.279,8.191,6.702,11.728,13.961,11.728c5.306,0,9.122-0.745,12.566-2.048l1.675,7.912
			c-3.909,1.583-9.308,2.792-15.823,2.792c-14.707,0-23.363-9.028-23.363-22.897c0-12.566,7.632-24.387,22.153-24.387
			c14.706,0,19.546,12.1,19.546,22.06c0,2.141-0.186,3.816-0.373,4.84H118.762z M138.681,105.956
			c0.093-4.189-1.769-11.077-9.401-11.077c-7.074,0-10.052,6.422-10.518,11.077H138.681z"/>
	</g>
</g>
<g id="pr" display="none">
	<g display="inline">
		<path fill="#FFFFFF" d="M64.122,71.516c4.096-0.745,9.773-1.303,17.499-1.303c8.377,0,14.52,1.768,18.522,5.119
			c3.723,3.072,6.143,8.005,6.143,13.869c0,5.957-1.861,10.89-5.398,14.241c-4.561,4.561-11.728,6.702-19.826,6.702
			c-2.141,0-4.095-0.093-5.584-0.373v23.642H64.122V71.516z M75.478,100.743c1.396,0.372,3.258,0.465,5.584,0.465
			c8.563,0,13.776-4.188,13.776-11.542c0-6.981-4.84-10.704-12.752-10.704c-3.165,0-5.398,0.279-6.608,0.559V100.743z"/>
		<path fill="#FFFFFF" d="M114.573,102.698c0-6.143-0.093-10.518-0.372-14.613h9.959l0.372,8.656h0.373
			c2.234-6.422,7.539-9.68,12.379-9.68c1.117,0,1.769,0.093,2.699,0.279v10.797c-0.931-0.186-1.955-0.372-3.351-0.372
			c-5.491,0-9.215,3.537-10.238,8.656c-0.187,1.024-0.373,2.234-0.373,3.537v23.456h-11.449V102.698z"/>
	</g>
</g>
</svg>
