<?xml version="1.0" encoding="utf-8"?>
<!-- Generator: Adobe Illustrator 16.0.0, SVG Export Plug-In . SVG Version: 6.00 Build 0)  -->
<!DOCTYPE svg PUBLIC "-//W3C//DTD SVG 1.1//EN" "http://www.w3.org/Graphics/SVG/1.1/DTD/svg11.dtd">
<svg version="1.1" xmlns="http://www.w3.org/2000/svg" xmlns:xlink="http://www.w3.org/1999/xlink" x="0px" y="0px" width="200px"
	 height="200px" viewBox="0 0 200 200" enable-background="new 0 0 200 200" xml:space="preserve">
<g id="Layer_6" display="none">
	<rect x="-0.2" y="0.1" display="inline" fill-rule="evenodd" clip-rule="evenodd" width="200" height="200"/>
</g>
<g id="Layer_1" display="none">
	<g display="inline">
		<g>
			<g>
				<path fill-rule="evenodd" clip-rule="evenodd" fill="#FFFFFF" d="M193.507,36.586c0,52.673,0,105.347,0,158.02
					c-52.673,0-105.346,0-158.02,0c-0.335-0.113-0.663-0.273-1.008-0.333c-13.971-2.419-23.239-10.329-27.688-23.799
					c-0.643-1.947-0.966-3.999-1.438-6.002c0-52.642,0-105.285,0-158.02c52.673,0,105.347,0,158.02,0
					c0.338,0.112,0.667,0.271,1.014,0.33c14.073,2.41,23.319,10.422,27.735,23.977C192.738,32.651,193.053,34.642,193.507,36.586z
					 M184.985,186.087c0-0.86,0-1.46,0-2.06c0-47.645,0.008-95.29-0.004-142.935c-0.004-15.133-10.951-26.111-26.052-26.116
					c-47.646-0.015-95.291-0.006-142.935-0.006c-0.649,0-1.298,0-2.119,0c0,0.86,0,1.459,0,2.059
					c0,47.706-0.005,95.413,0.021,143.119c0.001,1.826,0.134,3.687,0.497,5.472c2.513,12.349,12.64,20.458,25.541,20.461
					c47.645,0.014,95.29,0.005,142.935,0.005C183.474,186.087,184.079,186.087,184.985,186.087z"/>
			</g>
		</g>
		<rect x="5.476" y="67.324" fill-rule="evenodd" clip-rule="evenodd" fill="none" width="188.127" height="89.165"/>
		<text transform="matrix(1 0 0 1 60.2129 133.4136)" fill="#FFFFFF" font-family="'MyriadPro-Semibold'" font-size="93.0839">Id</text>
	</g>
</g>
<g id="Layer_2" display="none">
</g>
<g id="Layer_3" display="none">
</g>
<g id="Layer_4" display="none">
</g>
<g id="Layer_5">
	<g>
		<g>
			<path fill-rule="evenodd" clip-rule="evenodd" fill="#FFFFFF" d="M32.127,24.464c4.208,0,8.181,0,12.297,0
				c0,28.889,0,57.656,0,86.56c-4.1,0-8.133,0-12.297,0C32.127,82.195,32.127,53.425,32.127,24.464z"/>
			<path fill-rule="evenodd" clip-rule="evenodd" fill="#FFFFFF" d="M47.287,167.381c-2.386,0-4.294,0-6.443,0
				c-1.541-3.258-3.083-6.52-4.614-9.756c-5.656,0-11.132,0-16.55,0c-1.854,3.252-2.742,6.852-5.007,9.872
				c-2.085-0.3-4.242,0.714-6.344-0.944c6.296-14.051,12.602-27.92,18.881-41.563c1.414-0.323,1.72,0.449,2.049,1.17
				c2.14,4.679,4.281,9.355,6.41,14.039c3.014,6.631,6.014,13.268,9.023,19.901c0.768,1.69,1.588,3.36,2.29,5.077
				C47.224,165.766,47.173,166.474,47.287,167.381z M22.352,151.228c2.686,0.43,9.516,0.351,11.19-0.125
				c-1.907-3.962-3.452-8.064-5.67-12.426C25.898,143.164,24.14,147.164,22.352,151.228z"/>
			<path fill-rule="evenodd" clip-rule="evenodd" fill="#FFFFFF" d="M56.541,143.779c0.946-0.605,1.471-0.937,1.991-1.274
				c3.961-2.571,8.985-1.945,12.249,0.574c3.497,2.699,5.15,6.33,5.303,10.738c0.127,3.705-0.792,7.02-2.978,10.036
				c-3.287,4.536-10.355,5.687-14.576,2.766c-0.517-0.358-1.081-0.647-1.679-1c-0.318,0.599-0.577,1.086-0.91,1.711
				c-1.713,0-3.452,0-5.133,0c-0.563-1.682-0.694-39.851-0.165-42.403c1.778,0,3.592,0,5.659,0c0.083,0.857,0.227,1.675,0.231,2.494
				c0.022,4.502,0.009,9.005,0.007,13.508C56.541,141.707,56.541,142.483,56.541,143.779z M62.674,162.718
				c2.095-0.608,3.94-0.882,5.193-2.5c2.29-2.957,2.447-6.24,1.113-9.49c-1.652-4.023-6.933-5.26-9.996-2.443
				c-3.899,3.585-3.346,9.777-0.045,12.587C60.022,161.794,61.558,162.185,62.674,162.718z"/>
			<path fill-rule="evenodd" clip-rule="evenodd" fill="#FFFFFF" d="M113.48,156.493c-1.008,0.126-1.755,0.296-2.503,0.3
				c-4.215,0.025-8.431-0.001-12.646,0.017c-0.9,0.004-1.8,0.119-2.817,0.19c0.538,3.72,2.877,5.081,5.996,5.513
				c3.067-0.137,4.925-1.998,6.305-4.64c2.222,0.355,3.897,1.38,5.508,2.891c-1.26,2.652-3.048,4.657-5.52,5.897
				c-4.885,2.452-9.687,2.185-14.125-1.091c-2.733-2.02-4.099-5.004-4.408-8.274c-0.266-2.809-0.351-5.674,0.647-8.469
				c2.002-5.609,6.986-8.388,12.774-7.867c7.039,0.634,10.394,6.652,10.779,12.399C113.537,154.334,113.48,155.317,113.48,156.493z
				 M106.687,151.357c-0.832-3.128-2.562-4.542-5.299-4.519c-2.584,0.021-4.478,1.609-5.26,4.519
				C99.608,151.357,103.052,151.357,106.687,151.357z"/>
			<path fill-rule="evenodd" clip-rule="evenodd" fill="#FFFFFF" d="M148,168.177c-8.098,0.225-13.366-6.665-13.679-12.789
				c-0.401-7.881,5.408-14.489,13.518-14.484c7.439,0.005,13.467,5.085,13.719,13.474C161.789,162.041,155.558,168.33,148,168.177z
				 M148.064,147.126c-4.106-0.014-7.535,3.354-7.334,7.571c0.222,4.663,3.28,7.32,7.305,7.418c3.836,0.094,7.237-3.654,7.192-7.622
				C155.183,150.556,151.862,147.139,148.064,147.126z"/>
			<path fill-rule="evenodd" clip-rule="evenodd" fill="#FFFFFF" d="M186.021,167.171c-1.731,0.56-3.357,0.276-4.848,0.24
				c-1.149-0.589-1.095-1.534-1.093-2.479c0.009-4.149,0.002-8.298,0.001-12.447c0-0.5,0.019-1.002-0.007-1.501
				c-0.108-2.223-1.273-3.743-3.099-4.069c-2.521-0.45-4.551,0.369-5.347,2.461c-0.496,1.301-0.737,2.762-0.781,4.161
				c-0.111,3.645-0.034,7.295-0.066,10.943c-0.008,0.831-0.161,1.66-0.25,2.523c-1.951,0.843-3.763,0.455-5.774,0.314
				c-0.12-0.675-0.318-1.278-0.321-1.882c-0.024-7.438-0.021-14.877-0.017-22.317c0-0.276,0.086-0.554,0.153-0.959
				c1.604-1.146,3.418-0.419,5.109-0.585c0.495,0.406,0.931,0.765,1.448,1.189c0.34-0.145,0.742-0.281,1.109-0.479
				c2.13-1.151,4.297-1.609,6.788-1.25c4.69,0.677,6.924,3.556,7.187,7.764c0.36,5.771,0.083,11.582,0.066,17.375
				C186.278,166.446,186.142,166.718,186.021,167.171z"/>
			<path fill-rule="evenodd" clip-rule="evenodd" fill="#FFFFFF" d="M115.024,142.461c1.179-0.888,1.179-0.888,3.171-1.002
				c2.745-1.33,1.188-4.204,2.096-6.434c1.796-0.615,3.658-0.287,5.766-0.166c0,2.249,0,4.283,0,6.248
				c2.128,1.1,4.509-0.426,6.383,1.214c0,1.642,0,3.26,0,5.139c-2.024,0-3.987,0-6.078,0c-0.082,0.79-0.185,1.336-0.188,1.881
				c-0.017,2.5,0.033,5-0.023,7.499c-0.034,1.537,0.212,2.977,1.068,4.546c0.437,0.225,1.055,0.543,1.42,0.73
				c1.408,0.071,2.396-1.107,3.74-0.159c0,1.636,0,3.38,0,5.097c-4.161,2.773-10.081,0.889-11.659-3.751
				c-0.45-1.325-0.692-2.771-0.741-4.172c-0.108-3.067-0.026-6.14-0.038-9.211c-0.002-0.697-0.069-1.395-0.114-2.262
				c-1.597-0.074-3.064-0.142-4.602-0.212C114.725,145.772,114.983,144.152,115.024,142.461z"/>
			<path fill-rule="evenodd" clip-rule="evenodd" fill="#FFFFFF" d="M79.294,125.26c2.093-0.668,4.178-0.678,5.946-0.137
				c0.438,1.929,0.44,40.06-0.05,42.143c-1.795,0.41-3.638,0.371-5.653-0.114c-0.484-3.591-0.169-7.081-0.226-10.553
				c-0.057-3.503-0.015-7.008-0.015-10.513c-0.001-3.433-0.001-6.866-0.001-10.298C79.294,132.292,79.294,128.797,79.294,125.26z"/>
		</g>
	</g>
	<path fill-rule="evenodd" clip-rule="evenodd" fill="#FFFFFF" d="M7.252,24.464c4.208,0,8.181,0,12.297,0
		c0,28.889,0,57.656,0,86.56c-4.1,0-8.133,0-12.297,0C7.252,82.195,7.252,53.425,7.252,24.464z"/>
	<path fill-rule="evenodd" clip-rule="evenodd" fill="#FFFFFF" d="M81.752,24.464c4.208,0,8.181,0,12.297,0
		c0,28.889,0,57.656,0,86.56c-4.1,0-8.133,0-12.297,0C81.752,82.195,81.752,53.425,81.752,24.464z"/>
	<path fill-rule="evenodd" clip-rule="evenodd" fill="#FFFFFF" d="M56.877,24.464c4.208,0,8.181,0,12.297,0
		c0,28.889,0,57.656,0,86.56c-4.1,0-8.133,0-12.297,0C56.877,82.195,56.877,53.425,56.877,24.464z"/>
	<path fill-rule="evenodd" clip-rule="evenodd" fill="#FFFFFF" d="M193.181,49.621c0,4.209,0,8.181,0,12.297
		c-28.889,0-57.656,0-86.56,0c0-4.1,0-8.133,0-12.297C135.45,49.621,164.22,49.621,193.181,49.621z"/>
	<path fill-rule="evenodd" clip-rule="evenodd" fill="#FFFFFF" d="M193.181,24.746c0,4.209,0,8.181,0,12.297
		c-28.889,0-57.656,0-86.56,0c0-4.1,0-8.133,0-12.297C135.45,24.746,164.22,24.746,193.181,24.746z"/>
	<path fill-rule="evenodd" clip-rule="evenodd" fill="#FFFFFF" d="M193.181,99.246c0,4.208,0,8.181,0,12.297
		c-28.889,0-57.656,0-86.56,0c0-4.1,0-8.133,0-12.297C135.45,99.246,164.22,99.246,193.181,99.246z"/>
	<path fill-rule="evenodd" clip-rule="evenodd" fill="#FFFFFF" d="M193.181,74.371c0,4.209,0,8.181,0,12.297
		c-28.889,0-57.656,0-86.56,0c0-4.1,0-8.133,0-12.297C135.45,74.371,164.22,74.371,193.181,74.371z"/>
</g>
</svg>
