<?xml version="1.0" encoding="utf-8"?>
<!-- Generator: Adobe Illustrator 16.0.0, SVG Export Plug-In . SVG Version: 6.00 Build 0)  -->
<!DOCTYPE svg PUBLIC "-//W3C//DTD SVG 1.1//EN" "http://www.w3.org/Graphics/SVG/1.1/DTD/svg11.dtd">
<svg version="1.1" id="Layer_1" xmlns="http://www.w3.org/2000/svg" xmlns:xlink="http://www.w3.org/1999/xlink" x="0px" y="0px"
	 width="200px" height="200px" viewBox="0 0 200 200" enable-background="new 0 0 200 200" xml:space="preserve">
<g id="Layer_6" display="none">
	<rect x="-0.2" y="0.1" display="inline" width="200" height="200"/>
</g>
<g id="Layer_8" display="none">
</g>
<g id="Layer_9" display="none">
</g>
<g id="ai" display="none">
	<g display="inline">
		<path fill="#FFFFFF" d="M77.432,115.636l-5.399,17.778H60.212l20.105-62.735H94.93l20.384,62.735h-12.287l-5.677-17.778H77.432z
			 M95.396,106.979l-4.933-15.451c-1.21-3.816-2.234-8.098-3.165-11.728h-0.186c-0.931,3.63-1.862,8.005-2.979,11.728l-4.84,15.451
			H95.396z"/>
		<path fill="#FFFFFF" d="M135.33,75.426c0,3.444-2.514,6.143-6.516,6.143c-3.816,0-6.33-2.699-6.33-6.143
			c0-3.537,2.606-6.236,6.423-6.236C132.816,69.189,135.236,71.889,135.33,75.426z M123.137,133.414v-45.33h11.543v45.329
			L123.137,133.414L123.137,133.414z"/>
	</g>
</g>
<g id="ps" display="none">
	<g display="inline">
		<path fill="#FFFFFF" d="M61.702,71.516c4.096-0.745,9.773-1.303,17.499-1.303c8.377,0,14.52,1.768,18.522,5.119
			c3.722,3.072,6.143,8.005,6.143,13.869c0,5.957-1.861,10.89-5.398,14.24c-4.561,4.562-11.728,6.703-19.826,6.703
			c-2.141,0-4.095-0.094-5.584-0.373v23.642H61.702V71.516z M73.058,100.743c1.396,0.372,3.258,0.465,5.584,0.465
			c8.563,0,13.776-4.188,13.776-11.542c0-6.981-4.84-10.704-12.752-10.704c-3.165,0-5.398,0.279-6.608,0.559V100.743z"/>
		<path fill="#FFFFFF" d="M110.757,122.896c2.606,1.582,7.539,3.258,11.636,3.258c5.025,0,7.26-2.049,7.26-5.026
			c0-3.071-1.861-4.653-7.446-6.608c-8.842-3.07-12.565-7.912-12.472-13.217c0-8.004,6.607-14.241,17.125-14.241
			c5.026,0,9.401,1.303,12.008,2.699l-2.234,8.098c-1.955-1.117-5.584-2.606-9.587-2.606c-4.096,0-6.33,1.955-6.33,4.747
			c0,2.885,2.142,4.281,7.912,6.329c8.19,2.979,12.007,7.167,12.101,13.869c0,8.19-6.422,14.147-18.431,14.147
			c-5.491,0-10.425-1.303-13.776-3.164L110.757,122.896z"/>
	</g>
</g>
<g id="ae" display="none">
	<g display="inline">
		<path fill="#FFFFFF" d="M65.704,115.636l-5.399,17.778H48.484l20.105-62.735h14.613l20.384,62.735H91.3l-5.678-17.778H65.704z
			 M83.667,106.979l-4.933-15.451C77.524,87.712,76.5,83.43,75.57,79.8h-0.186c-0.931,3.63-1.862,8.005-2.979,11.728l-4.84,15.451
			H83.667z"/>
		<path fill="#FFFFFF" d="M118.762,113.96c0.279,8.19,6.702,11.728,13.961,11.728c5.307,0,9.122-0.744,12.566-2.047l1.675,7.911
			c-3.909,1.583-9.308,2.792-15.823,2.792c-14.707,0-23.363-9.027-23.363-22.896c0-12.566,7.633-24.387,22.154-24.387
			c14.705,0,19.545,12.1,19.545,22.06c0,2.141-0.186,3.815-0.373,4.84H118.762z M138.682,105.956
			c0.092-4.188-1.77-11.077-9.401-11.077c-7.074,0-10.052,6.422-10.519,11.077H138.682z"/>
	</g>
</g>
<g id="pr" display="none">
	<g display="inline">
		<path fill="#FFFFFF" d="M64.122,71.516c4.096-0.745,9.773-1.303,17.499-1.303c8.377,0,14.52,1.768,18.522,5.119
			c3.723,3.072,6.143,8.005,6.143,13.869c0,5.957-1.861,10.89-5.397,14.24c-4.562,4.562-11.729,6.703-19.827,6.703
			c-2.141,0-4.095-0.094-5.584-0.373v23.642H64.122V71.516z M75.478,100.743c1.396,0.372,3.258,0.465,5.584,0.465
			c8.563,0,13.776-4.188,13.776-11.542c0-6.981-4.84-10.704-12.752-10.704c-3.165,0-5.398,0.279-6.608,0.559V100.743z"/>
		<path fill="#FFFFFF" d="M114.573,102.698c0-6.143-0.093-10.518-0.372-14.613h9.959l0.372,8.656h0.373
			c2.233-6.422,7.538-9.68,12.379-9.68c1.116,0,1.769,0.093,2.698,0.279v10.797c-0.931-0.186-1.955-0.372-3.351-0.372
			c-5.491,0-9.215,3.537-10.237,8.656c-0.188,1.024-0.373,2.233-0.373,3.537v23.456h-11.449L114.573,102.698L114.573,102.698z"/>
	</g>
</g>
<defs>
	<filter id="Adobe_OpacityMaskFilter" filterUnits="userSpaceOnUse" x="6.927" y="7.784" width="187.49" height="186.411">
		<feColorMatrix  type="matrix" values="1 0 0 0 0  0 1 0 0 0  0 0 1 0 0  0 0 0 1 0"/>
	</filter>
</defs>
<mask maskUnits="userSpaceOnUse" x="6.927" y="7.784" width="187.49" height="186.411" id="mask0_1_">
	<path fill="#FFFFFF" filter="url(#Adobe_OpacityMaskFilter)" d="M139.912,193.397c2.952,1.149,6.316,1.077,9.295-0.357
		l38.578-18.563c4.055-1.951,6.632-6.054,6.632-10.554V38.056c0-4.501-2.577-8.604-6.632-10.555L149.207,8.938
		c-3.908-1.881-8.483-1.42-11.914,1.074c-0.491,0.356-0.958,0.754-1.396,1.192L62.045,78.582L29.876,54.163
		c-2.995-2.273-7.183-2.087-9.965,0.443L9.595,63.991c-3.402,3.094-3.406,8.447-0.009,11.546l27.898,25.452L9.586,126.44
		c-3.397,3.1-3.394,8.452,0.009,11.546l10.317,9.387c2.782,2.529,6.97,2.716,9.965,0.442l32.168-24.419l73.852,67.377
		C137.065,191.942,138.438,192.822,139.912,193.397z M147.601,58.453l-56.036,42.537l56.036,42.536V58.453z"/>
</mask>
<g mask="url(#mask0_1_)">
	<path fill="#FFFFFF" d="M187.786,27.53L149.179,8.941c-4.47-2.152-9.811-1.244-13.316,2.263L9.474,126.44
		c-3.399,3.1-3.396,8.452,0.009,11.546l10.324,9.385c2.782,2.531,6.974,2.718,9.97,0.444l152.2-115.463
		c5.106-3.874,12.44-0.232,12.44,6.177v-0.448C194.417,33.583,191.84,29.482,187.786,27.53z"/>
	<g>
		<path fill="#FFFFFF" d="M187.786,174.447l-38.607,18.589c-4.47,2.152-9.811,1.244-13.316-2.263L9.474,75.537
			c-3.399-3.099-3.396-8.452,0.009-11.546l10.324-9.385c2.782-2.53,6.974-2.717,9.97-0.444l152.2,115.463
			c5.106,3.873,12.44,0.232,12.44-6.177v0.447C194.417,168.395,191.84,172.495,187.786,174.447z"/>
	</g>
	<g>
		<path fill="#FFFFFF" d="M149.181,193.04c-4.471,2.15-9.812,1.24-13.318-2.267c4.321,4.321,11.711,1.261,11.711-4.851V16.055
			c0-6.112-7.39-9.172-11.711-4.851c3.507-3.507,8.848-4.416,13.318-2.267l38.601,18.563c4.057,1.951,6.636,6.053,6.636,10.554
			v125.868c0,4.501-2.579,8.604-6.636,10.555L149.181,193.04z"/>
	</g>
	<g opacity="0.25">
		
			<linearGradient id="SVGID_1_" gradientUnits="userSpaceOnUse" x1="-861.7114" y1="620.751" x2="-861.7114" y2="603.4912" gradientTransform="matrix(10.8 0 0 -10.8 9407.1006 6711.8999)">
			<stop  offset="0" style="stop-color:#FFFFFF"/>
			<stop  offset="1" style="stop-color:#FFFFFF;stop-opacity:0"/>
		</linearGradient>
		<path fill="url(#SVGID_1_)" d="M139.799,193.397c2.951,1.149,6.316,1.075,9.295-0.357l38.578-18.563
			c4.053-1.951,6.631-6.054,6.631-10.555V38.056c0-4.501-2.577-8.604-6.631-10.555L149.094,8.938
			c-3.909-1.881-8.484-1.42-11.916,1.074c-0.489,0.356-0.956,0.754-1.395,1.192L61.931,78.581L29.763,54.163
			c-2.995-2.273-7.184-2.087-9.965,0.443L9.48,63.991c-3.402,3.094-3.406,8.447-0.008,11.546l27.897,25.452L9.472,126.44
			c-3.397,3.1-3.394,8.452,0.008,11.546l10.317,9.385c2.781,2.531,6.97,2.718,9.965,0.444l32.168-24.419l73.852,67.377
			C136.952,191.942,138.324,192.822,139.799,193.397z M147.487,58.453L91.45,100.989l56.037,42.536V58.453z"/>
	</g>
</g>
</svg>
