<?xml version="1.0" encoding="utf-8"?>
<!-- Generator: Adobe Illustrator 16.0.0, SVG Export Plug-In . SVG Version: 6.00 Build 0)  -->
<!DOCTYPE svg PUBLIC "-//W3C//DTD SVG 1.1//EN" "http://www.w3.org/Graphics/SVG/1.1/DTD/svg11.dtd">
<svg version="1.1" id="Layer_1" xmlns="http://www.w3.org/2000/svg" xmlns:xlink="http://www.w3.org/1999/xlink" x="0px" y="0px"
	 width="200px" height="200px" viewBox="0 0 200 200" enable-background="new 0 0 200 200" xml:space="preserve">
<g>
	<g>
		<path d="M27.397,141.116c-4.431,0.022-7.197,4.362-5.383,8.381c6.096,13.505,16.13,22.793,30.12,27.731
			c3.25,1.146,6.48-0.396,7.577-3.443c1.101-3.055-0.433-6.194-3.641-7.486c-1.576-0.634-3.188-1.199-4.707-1.953
			c-8.382-4.158-14.572-10.49-18.442-19.015C31.765,142.79,30.019,141.285,27.397,141.116z"/>
		<path d="M196.991,122.484c-0.49,3.041-0.892,6.1-1.487,9.119c-5.708,28.898-29.48,51.953-58.523,56.445
			c-24.582,3.807-45.81-3.219-63.463-20.714c-19.334-19.156-38.408-38.581-57.867-57.608C5.53,99.83,8.174,83.788,20.319,78.192
			c0.154-0.07,0.276-0.208,0.667-0.515c-2.709-2.654-5.44-5.171-7.991-7.858c-8.813-9.286-6.316-24.158,5.034-30.066
			c1.552-0.808,3.254-1.326,5.059-2.047c-1-7.711,1.428-14.263,7.912-18.913c6.448-4.625,13.359-4.704,20.52-1.196
			c0.194-0.313,0.409-0.598,0.559-0.913c6.036-12.686,21.377-15.352,31.367-5.396c14.76,14.712,29.48,29.465,44.21,44.207
			c1.777,1.779,3.515,3.6,5.646,5.786c-0.079-0.93-0.063-1.319-0.151-1.684c-1.987-8.341-4.146-16.644-5.95-25.024
			c-2.347-10.89,4.692-21.698,15.495-24.194c10.972-2.535,22.109,3.998,24.714,14.926c3.146,13.214,6.78,26.257,12.185,38.735
			c2.979,6.88,6.238,13.645,9.561,20.37c4.096,8.3,6.685,16.992,7.519,26.21c0.05,0.549,0.216,1.088,0.325,1.633
			C196.991,115.664,196.991,119.075,196.991,122.484z M185.309,117.188c0.004-10.104-2.156-19.036-7.098-28.529
			c-9.831-18.897-17.266-38.66-21.791-59.497c-1.191-5.488-5.932-8.615-11.079-7.433c-5.004,1.147-7.882,6.059-6.616,11.44
			c1.387,5.891,2.862,11.761,4.287,17.644c2.271,9.376,4.543,18.75,6.78,28.135c0.558,2.338-0.478,4.687-2.521,6.069
			c-2.043,1.383-4.289,1.393-6.369-0.058c-0.719-0.501-1.354-1.134-1.979-1.756C118.198,62.488,97.481,41.767,76.76,21.049
			c-0.76-0.759-1.495-1.545-2.295-2.259c-1.637-1.461-3.569-2.149-5.757-1.85c-3.018,0.412-5.125,2.115-6.166,4.944
			c-1.058,2.876-0.374,5.502,1.766,7.664C69.684,34.98,75.1,40.37,80.502,45.774c7.769,7.771,15.528,15.551,23.32,23.298
			c1.688,1.678,2.615,3.575,2.063,5.952c-0.493,2.118-1.813,3.597-3.923,4.236c-2.418,0.732-4.451,0.006-6.203-1.749
			c-8.879-8.894-17.768-17.776-26.655-26.662c-7.234-7.233-14.452-14.484-21.711-21.692c-3.086-3.064-7.499-3.104-10.519-0.198
			c-3.279,3.155-3.214,7.604,0.249,11.057C52.239,55.087,67.373,70.139,82.498,85.2c1.163,1.159,2.393,2.263,3.452,3.511
			c2.842,3.353,1.149,8.523-3.078,9.433c-2.45,0.528-4.381-0.448-6.113-2.182c-10.443-10.454-20.925-20.87-31.395-31.298
			c-4.43-4.413-8.825-8.859-13.301-13.224c-3.232-3.152-8.016-2.916-10.914,0.421c-2.778,3.196-2.438,7.284,0.936,10.647
			c16.281,16.227,32.573,32.443,48.858,48.665c0.537,0.534,1.111,1.045,1.566,1.646c1.461,1.931,1.74,4.039,0.648,6.221
			c-1.095,2.188-2.992,3.479-5.366,3.072c-1.616-0.273-3.394-1.127-4.562-2.27c-9.885-9.672-19.637-19.479-29.451-29.223
			c-3.253-3.23-7.63-3.368-10.646-0.413c-2.997,2.935-2.963,7.451,0.234,10.646c20.106,20.08,40.046,40.334,60.436,60.123
			c13.583,13.184,30.328,18.311,49.058,15.938C163.018,173.092,185.299,147.518,185.309,117.188z"/>
		<path d="M2.96,156.593c0.922-2.356,2.335-4.194,5.044-4.54c2.778-0.354,5.015,0.967,6.287,3.813
			c2.997,6.706,7.117,12.599,12.449,17.655c5.379,5.102,11.543,8.92,18.479,11.522c3.749,1.409,5.321,4.874,3.772,8.138
			c-1.368,2.879-4.438,4.034-7.697,2.813C26.719,190.52,15.4,181.098,7.388,167.758c-1.645-2.734-2.961-5.67-4.429-8.513
			C2.96,158.361,2.96,157.477,2.96,156.593z"/>
		<path d="M27.397,141.116c2.622,0.169,4.368,1.674,5.523,4.215c3.871,8.524,10.06,14.854,18.442,19.015
			c1.518,0.754,3.13,1.319,4.707,1.953c3.208,1.292,4.742,4.432,3.641,7.486c-1.097,3.048-4.327,4.59-7.577,3.443
			C38.144,172.29,28.11,163,22.013,149.497C20.2,145.479,22.966,141.141,27.397,141.116z"/>
	</g>
</g>
</svg>
