<?xml version="1.0" encoding="utf-8"?>
<!-- Generator: Adobe Illustrator 16.0.0, SVG Export Plug-In . SVG Version: 6.00 Build 0)  -->
<!DOCTYPE svg PUBLIC "-//W3C//DTD SVG 1.1//EN" "http://www.w3.org/Graphics/SVG/1.1/DTD/svg11.dtd">
<svg version="1.1" id="Layer_1" xmlns="http://www.w3.org/2000/svg" xmlns:xlink="http://www.w3.org/1999/xlink" x="0px" y="0px"
	 width="75px" height="86.667px" viewBox="0 0 75 86.667" enable-background="new 0 0 75 86.667" xml:space="preserve">
<g>
	<path fill="#FFFFFF" d="M35.938,64.458c0-1.582,0-9.104,0-9.104c-0.559-0.633-6.659-7.474-7.757-9.019
		c-1.099-1.545-0.875-1.637-0.875-1.637s-0.224-0.597,0.968-1.714c1.191-1.117,7.501-7.314,9.566-8.58
		c2.064-1.266,2.438-1.805,6.59-2.364c0.092-0.409,0.055-0.651-0.058-0.968c-1.34,0.112-6.699,0.67-15.279,0.67
		c-0.149,0.484-0.112,0.782,0.037,0.949c0.893,0.13,3.033,0.373,3.536,0.596c0.502,0.223,1.433,0.894,0.502,2.103
		c-0.931,1.21-2.661,3.239-4.987,5.677c-2.327,2.438-4.523,5.063-7.649,5.008c-1.378-0.037-1.638-0.262-1.861-0.576
		c-0.223-0.316-0.261-1.603-0.261-3.629c0-2.028-0.056-34.878,0.279-37.54c0,0,0.019-0.093-0.148-0.093c0,0-3.108,1.489-4.486,1.954
		c-1.377,0.465-4.225,1.415-4.56,1.545C9.458,7.959,9.365,8.35,9.532,8.443c0.168,0.093,2.438,1.322,2.997,2.308
		c0.558,0.986,0.744,1.34,0.744,7.035c0,5.695,0.037,37.688,0.019,38.396s0.242,5.044-1.116,6.196
		c-1.359,1.154-2.755,0.838-4.393,1.229c-0.094,0.279-0.112,0.688,0.056,0.971c0.316-0.021,5.677-0.541,16.136,0
		c0.112-0.205,0.299-0.67,0.094-0.971c-0.67-0.072-3.853-0.24-4.69-1.434c0,0-1.136-1.063-0.931-6.217v-6.773
		c0,0,0-1.991,1.396-2.047c1.396-0.059,2.587-0.148,3.853,1.303c1.266,1.451,9.566,10.889,10.311,12.004
		c0.744,1.117,0.67,1.992,0.187,2.311c-0.484,0.314-2.364,0.744-3.667,0.854c-0.093,0.393-0.056,0.615,0.149,0.949
		C33.112,64.446,34.438,64.395,35.938,64.458z"/>
	<path fill="#FFFFFF" d="M65.398,38.76c-2.035-3.053-6.279-5.881-11.441-5.311c-5.16,0.57-9.105,3.175-9.627,3.473
		s-0.993,0.471-1.489,0.149c-0.497-0.322-0.653-1.662-0.549-2.363c0,0-0.81,0.049-1.798,0.585c-1,0.542-2.702,1.832-4.649,3.833
		c0.502,0.373,1.555-0.33,1.629,1.717c0.075,2.048,0.081,29.827,0.03,33.005c0,0,0.305,6.601-1.184,7.513
		c-1.489,0.912-2.476,0.838-3.965,1.079c-0.093,0.41-0.074,0.597,0.075,0.838c1.823-0.094,6.327-0.204,7.798-0.204
		c1.471,0,8.431,0.168,8.709,0.241c0.131-0.335,0.205-0.56,0.076-0.875c-0.615-0.11-3.854-0.354-4.935-0.931
		c-1.079-0.577-1.692-2.457-1.677-7.762V69.02c0,0-0.168-2.122,1.75-2.513c1.304,0.187,4.447,0.67,8.188,0.057
		c3.741-0.615,6.607-2.066,8.339-3.48c1.73-1.414,5.508-4.41,6.924-10.721C69.042,45.958,67.675,42.177,65.398,38.76z
		 M62.654,51.416c-0.11,3.797-1.525,8.485-4.614,11.392c-3.09,2.901-7.817,3.127-11.614,1.45c-3.797-1.676-4.057-5.024-4.057-6.217
		c0-1.189,0-8.264,0-8.264v-5.845c0,0-0.188-4.392,1.266-5.434c1.451-1.042,3.387-2.345,7.816-2.345
		c4.429,0,7.779,3.239,9.193,5.881C62.061,44.677,62.768,47.619,62.654,51.416z"/>
</g>
</svg>
